<?xml version="1.0" encoding="UTF-8" standalone="no"?>
<svg
   width="128"
   height="128"
   version="1.1"
   id="svg6"
   sodipodi:docname="DefaultProjectIcon.svg"
   inkscape:version="1.4.2 (f4327f4, 2025-05-13)"
   xmlns:inkscape="http://www.inkscape.org/namespaces/inkscape"
   xmlns:sodipodi="http://sodipodi.sourceforge.net/DTD/sodipodi-0.dtd"
   xmlns="http://www.w3.org/2000/svg"
   xmlns:svg="http://www.w3.org/2000/svg">
  <defs
     id="defs6">
    <linearGradient
       x1="0"
       y1="0"
       x2="1"
       y2="0"
       gradientUnits="userSpaceOnUse"
       gradientTransform="matrix(0,-86.186655,86.186655,0,65.687334,108.65515)"
       spreadMethod="pad"
       id="linearGradient2">
      <stop
         style="stop-opacity:1;stop-color:#ee2328"
         offset="0"
         id="stop1" />
      <stop
         style="stop-opacity:1;stop-color:#f25525"
         offset="1"
         id="stop2" />
    </linearGradient>
  </defs>
  <sodipodi:namedview
     id="namedview6"
     pagecolor="#ffffff"
     bordercolor="#000000"
     borderopacity="0.25"
     inkscape:showpageshadow="2"
     inkscape:pageopacity="0.0"
     inkscape:pagecheckerboard="0"
     inkscape:deskcolor="#d1d1d1"
     inkscape:zoom="1.578125"
     inkscape:cx="-68.118812"
     inkscape:cy="-44.990099"
     inkscape:window-width="1920"
     inkscape:window-height="1010"
     inkscape:window-x="-6"
     inkscape:window-y="-6"
     inkscape:window-maximized="1"
     inkscape:current-layer="svg6" />
  <rect
     width="124"
     height="124"
     x="2"
     y="2"
     fill="#363d52"
     stroke="#212532"
     stroke-width="4"
     rx="14"
     id="rect1" />
  <path
     id="path2"
     d="m 64.74732,15.708391 c -1.195397,0.549912 -2.328429,1.235078 -3.480905,1.87651 v 0 c -1.796332,1.001022 -3.597523,1.993135 -5.379283,3.018455 v 0 c -2.660485,1.531498 -5.300717,3.099446 -7.960393,4.634183 v 0 c -2.211807,1.274767 -4.442241,2.514705 -6.655666,3.78542 v 0 c -1.475622,0.846337 -2.926941,1.735595 -4.4058,2.575446 v 0 c -1.767175,1.002645 -3.557032,1.965601 -5.328259,2.961765 v 0 c -1.770412,0.997785 -3.506009,2.057119 -5.303148,3.003881 v 0 c -0.83419,0.441385 -1.197019,0.971865 -1.19864,1.93563 v 0 c -0.009,4.733804 -0.105283,9.468411 -0.123924,14.203024 v 0 c -0.02672,6.279066 -0.0041,12.558139 -0.0202,18.838013 v 0 c -0.0018,0.712706 0.263212,1.217263 0.86577,1.565519 v 0 c 1.307975,0.758056 2.620801,1.511254 3.92634,2.274168 v 0 c 2.229626,1.303919 4.450342,2.621611 6.683205,3.92067 v 0 c 2.297658,1.338744 4.608271,2.655625 6.905922,3.992756 v 0 c 2.895354,1.685375 5.772889,3.403149 8.680391,5.068285 v 0 c 2.717174,1.557416 5.471608,3.048418 8.192028,4.600975 v 0 c 1.380858,0.788025 2.723658,1.644076 4.081026,2.4734 v 0 c 0.889258,0.543438 1.757463,0.571786 2.613513,-0.07289 v 0 c 0.197619,-0.148216 0.409808,-0.279411 0.625234,-0.401703 v 0 c 3.386146,-1.937252 6.772294,-3.876126 10.164103,-5.804473 v 0 c 2.283078,-1.299064 4.584782,-2.564921 6.855712,-3.88423 v 0 c 0.88359,-0.514275 1.444028,-1.192966 1.428644,-2.381075 v 0 C 85.84577,78.797924 85.87734,73.702098 85.87575,68.607087 v 0 c -6.05e-4,-5.700806 -0.01056,-11.40161 0.01217,-17.102423 v 0 c 0.003,-0.768582 -0.209762,-1.326598 -0.88845,-1.712915 v 0 c -0.856071,-0.48674 -1.684588,-1.02046 -2.540645,-1.506394 v 0 c -3.19826,-1.81739 -6.407849,-3.616958 -9.602048,-5.44164 v 0 C 72.415384,42.592646 72.031496,42.24116 71.42408,41.79005 v 0 c 1.350894,-0.770205 2.487171,-1.421355 3.628302,-2.06441 v 0 c 0.612276,-0.34582 1.184867,-0.251063 1.782565,0.107716 v 0 c 1.721821,1.030988 3.466321,2.020669 5.198674,3.034655 v 0 c 2.413474,1.412443 4.796977,2.877533 7.246886,4.223568 v 0 c 0.877112,0.482695 1.069863,1.092543 1.068247,1.998807 v 0 c -0.02181,12.393732 -0.01791,24.786646 -0.02181,37.18038 v 0 c 0,0.274546 0.0026,0.553156 -0.03723,0.823657 v 0 c -0.08503,0.587165 -0.270502,1.043135 -0.907073,1.343599 v 0 c -1.061766,0.49971 -2.049018,1.157336 -3.063809,1.756649 v 0 c -2.130011,1.256958 -4.243007,2.544675 -6.389216,3.773279 v 0 c -3.01764,1.728301 -6.063634,3.406393 -9.087763,5.122539 v 0 c -1.313634,0.745106 -2.607031,1.525021 -3.900421,2.305751 v 0 c -0.726471,0.43897 -1.377621,0.77669 -2.27336,0.24054 v 0 c -2.733376,-1.63597 -5.520205,-3.180434 -8.277876,-4.775905 v 0 C 52.988607,94.894467 49.598414,92.911045 46.20174,90.937348 v 0 C 43.042365,89.102141 39.879747,87.27341 36.72361,85.433345 v 0 c -0.613897,-0.357975 -1.188915,-0.783167 -1.810101,-1.12575 v 0 C 34.030732,83.81923 33.106645,83.403757 32.227105,82.909728 v 0 c -1.266663,-0.711084 -2.507416,-1.46914 -3.764361,-2.198849 v 0 C 27.70874,80.272731 26.963639,79.811095 26.178858,79.433684 v 0 c -0.746717,-0.358778 -1.082824,-0.144977 -1.11198,0.695696 v 0 c -0.04052,1.15085 0.06885,2.312229 -0.03724,3.454174 v 0 c -0.123097,1.331458 0.363643,2.232864 1.531499,2.815176 v 0 c 0.221103,0.110149 0.433295,0.2373 0.649534,0.357161 v 0 c 1.297442,0.711085 2.61027,1.396251 3.888274,2.140537 v 0 c 1.895948,1.10469 3.753029,2.277405 5.654643,3.372377 v 0 c 2.846762,1.640025 5.733206,3.212827 8.574293,4.864193 v 0 c 2.683167,1.559032 5.314496,3.208772 7.997656,4.768622 v 0 c 2.586787,1.50316 5.213256,2.93747 7.817045,4.41227 v 0 c 1.287722,0.72972 2.55115,1.50721 3.854265,2.20857 v 0 c 0.268878,0.14498 0.733761,0.18465 0.99292,0.0502 v 0 c 1.92268,-1.00102 3.838873,-2.01905 5.714576,-3.10511 v 0 c 2.849999,-1.65137 5.653834,-3.38129 8.499783,-5.03994 v 0 c 3.009549,-1.754219 6.043394,-3.466327 9.071566,-5.189768 v 0 c 1.790665,-1.018838 3.57161,-2.053068 5.389002,-3.023313 v 0 c 0.909502,-0.485928 1.333079,-1.071483 1.329835,-2.183457 v 0 c -0.03644,-14.789389 -0.01952,-29.578771 -0.01631,-44.36896 v 0 c 0,-0.247826 0.05425,-0.518334 -0.02672,-0.737004 v 0 c -0.125532,-0.341768 -0.275366,-0.735374 -0.54101,-0.949999 v 0 C 94.922126,43.582348 94.350347,43.289973 93.79962,42.978975 v 0 c -2.966616,-1.671606 -5.942957,-3.325394 -8.904719,-5.006724 v 0 c -2.794119,-1.584957 -5.559079,-3.221738 -8.374249,-4.767006 v 0 c -0.40406,-0.221104 -1.097321,-0.232438 -1.519277,-0.03967 v 0 c -1.246418,0.569354 -2.436141,1.26667 -3.624248,1.955073 v 0 c -2.680736,1.550936 -5.342029,3.138322 -8.023573,4.68845 v 0 c -1.6627,0.961332 -3.36266,1.857879 -5.023737,2.82408 v 0 c -2.276599,1.323361 -4.524853,2.69693 -6.799021,4.023528 v 0 c -1.698337,0.989681 -3.425017,1.932393 -5.130643,2.91074 v 0 c -0.514282,0.294797 -0.886021,0.661678 -0.889258,1.360614 v 0 c -0.01791,4.238959 -0.07452,8.478728 -0.122295,12.717682 v 0 c -0.008,0.711893 0.009,1.427028 -0.06074,2.133248 v 0 c -0.05831,0.600942 -0.405755,0.817989 -0.980771,0.489176 v 0 c -0.955676,-0.544245 -1.934831,-1.051238 -2.854053,-1.649744 v 0 C 41.221715,64.441856 41.015194,64.02963 40.955265,63.694336 v 0 c -0.0907,-0.506978 -0.02994,-1.042318 -0.02994,-1.565506 v 0 c 6.08e-4,-4.516748 -0.01056,-9.032691 0.02351,-13.550251 v 0 c 0.003,-0.40899 0.178977,-1.013171 0.476214,-1.192965 v 0 c 3.356178,-2.027965 6.752852,-3.991943 10.139808,-5.969691 v 0 c 1.77204,-1.03423 3.542455,-2.071699 5.325022,-3.088107 v 0 c 1.813338,-1.03423 3.653411,-2.025534 5.459462,-3.071905 v 0 c 2.878347,-1.667565 5.737249,-3.368334 8.606686,-5.049662 v 0 c 1.422976,-0.834183 2.839473,-1.679707 4.287553,-2.466919 v 0 c 0.29156,-0.157924 0.782354,-0.215433 1.063388,-0.07776 v 0 c 0.960525,0.468925 1.873266,1.03423 2.793301,1.583334 v 0 c 1.928348,1.15085 3.834822,2.340578 5.777748,3.465512 v 0 c 2.305753,1.334696 4.655242,2.595693 6.960187,3.931203 v 0 c 2.655625,1.539599 5.278852,3.132646 7.928002,4.683589 v 0 c 0.580693,0.34096 0.838233,0.757241 0.817983,1.459414 v 0 c -0.0502,1.733974 -0.0129,3.469564 -0.0129,5.205162 v 0 c -0.002,12.944449 -0.008,25.888097 0.01,38.83255 v 0 c 6.1e-4,0.417094 0.1725,1.126557 0.39847,1.184869 v 0 c 0.38551,0.09961 0.91274,-0.141741 1.31768,-0.357969 v 0 c 1.03504,-0.555586 2.00529,-1.23913 3.06138,-1.74693 v 0 c 0.62848,-0.302901 0.98564,-0.701366 1.02451,-1.353325 v 0 c 0.0405,-0.681929 -0.0121,-1.369526 -0.009,-2.054692 v 0 c 0.0365,-6.689679 0.0939,-13.380173 0.10853,-20.069854 v 0 c 0.007,-3.082439 -0.0842,-6.164879 -0.0988,-9.248126 v 0 c -0.0218,-4.543476 -0.005,-9.088568 -0.0357,-13.632046 v 0 c -0.002,-0.403324 -0.10368,-0.962961 -0.37499,-1.177581 v 0 c -0.79456,-0.627659 -1.67814,-1.14761 -2.56011,-1.653794 v 0 c -2.61918,-1.50072 -5.261045,-2.960948 -7.878603,-4.461677 v 0 c -2.672651,-1.530687 -5.32747,-3.092156 -7.992,-4.634996 v 0 C 84.880401,26.075 82.216677,24.537829 79.549711,23.002279 v 0 c -1.02046,-0.587165 -2.021482,-1.218877 -3.085676,-1.715344 v 0 c -0.387125,-0.180606 -1.027749,-0.202462 -1.386526,0 v 0 c -2.435339,1.367903 -4.81965,2.825703 -7.233117,4.233293 v 0 c -1.867605,1.088492 -3.759508,2.139722 -5.632781,3.221738 v 0 c -2.759288,1.592242 -5.503196,3.214449 -8.270587,4.793733 v 0 c -2.498504,1.425401 -5.027787,2.796548 -7.529537,4.217903 v 0 c -3.150464,1.789849 -6.26854,3.636395 -9.436011,5.395473 v 0 c -1.251277,0.696507 -1.961554,1.464281 -1.88542,3.075958 v 0 c 0.156295,3.297872 0.0486,6.608694 0.04938,9.91304 v 0 c 6.06e-4,3.415305 0.0044,6.829794 -6.08e-4,10.245906 v 0 c -6.07e-4,0.745907 0.10448,1.421355 0.835807,1.84493 v 0 c 1.331455,0.770205 2.641855,1.576855 3.975739,2.343816 v 0 c 1.921868,1.103881 3.865602,2.169691 5.782609,3.283292 v 0 c 1.329835,0.771821 2.615943,1.617345 3.946586,2.387548 v 0 c 0.922466,0.53372 1.909718,0.955674 2.828944,1.492631 v 0 c 1.987469,1.162188 3.930388,2.398081 5.926766,3.542454 v 0 c 2.025534,1.160565 4.110188,2.218285 6.134909,3.380475 v 0 c 0.736997,0.42357 1.38491,0.430859 2.087083,0.02509 v 0 c 1.376,-0.79612 2.753621,-1.588192 4.128813,-2.384314 v 0 c 2.777922,-1.607632 5.55341,-3.21688 8.332949,-4.821268 v 0 c 0.629282,-0.363642 0.936228,-0.213803 0.958903,0.51023 v 0 c 0.03237,0.990491 -0.02112,1.982608 0.0163,2.973099 v 0 c 0.02753,0.72404 -0.281031,1.209974 -0.878729,1.554178 v 0 c -0.711081,0.410615 -1.428644,0.812318 -2.138102,1.226175 v 0 c -3.416112,1.993131 -6.829793,3.98951 -10.245905,5.981836 v 0 c -0.779923,0.455162 -1.524214,0.58312 -2.381072,0.06155 v 0 c -2.065216,-1.258568 -4.18227,-2.432097 -6.267729,-3.65827 v 0 c -2.299334,-1.350892 -4.573502,-2.742278 -6.881684,-4.076165 v 0 c -1.425407,-0.824471 -2.9156,-1.538793 -4.339386,-2.365688 v 0 c -2.208567,-1.282864 -4.374213,-2.639426 -6.579536,-3.927962 v 0 c -1.657847,-0.969437 -3.353756,-1.873273 -5.022937,-2.821652 v 0 C 34.07143,72.203833 32.826632,71.391511 31.506515,70.725783 v 0 C 30.858602,70.39859 30.652081,70.016318 30.65451,69.325487 v 0 c 0.02112,-8.620459 0.01538,-17.241723 0.02837,-25.861373 v 0 c 6.07e-4,-0.4916 0.03808,-1.001022 0.178172,-1.465897 v 0 c 0.09234,-0.306953 0.342583,-0.642247 0.617945,-0.805034 v 0 c 2.689641,-1.597099 5.394672,-3.170715 8.106989,-4.732177 v 0 C 41.535388,35.3385 43.501802,34.24515 45.459299,33.13803 v 0 c 2.031205,-1.148425 4.066457,-2.288746 6.09037,-3.449318 v 0 c 3.093776,-1.772843 6.179452,-3.559463 9.268372,-5.340408 v 0 c 2.926934,-1.686996 5.857928,-3.366703 8.774335,-5.070713 v 0 c 0.41385,-0.242153 0.758864,-0.602558 1.194589,-0.955668 v 0 C 70.556954,18.081386 70.421699,17.854619 70.220851,17.74204 v 0 c -1.293397,-0.728893 -2.57383,-1.491809 -3.921482,-2.110566 v 0 C 66.123629,15.551284 65.90495,15.51485 65.67656,15.51485 v 0 c -0.324761,0 -0.667344,0.07289 -0.92894,0.193555 m 0.21463,62.517747 C 60.718426,75.750333 56.465695,73.290703 52.20163,70.848079 v 0 c -0.743478,-0.426005 -1.07958,-0.950813 -1.056905,-1.84736 v 0 c 0.06074,-2.338149 0.02112,-4.678726 0.02112,-7.018493 v 0 h 0.01056 c 0,-2.283888 0.06155,-4.571018 -0.02429,-6.85166 v 0 c -0.04617,-1.210789 0.541007,-1.931585 1.456992,-2.461253 v 0 c 3.209589,-1.858695 6.441048,-3.678516 9.665215,-5.513728 v 0 c 0.928939,-0.529668 1.837635,-1.100639 2.797352,-1.567135 v 0 c 0.31019,-0.150647 0.833377,-0.171699 1.122506,-0.008 v 0 c 2.891304,1.639217 5.755073,3.326213 8.62451,5.005114 v 0 c 1.351702,0.790449 2.660486,1.66675 4.058351,2.362444 v 0 c 1.068245,0.531289 1.358186,1.365472 1.346036,2.406991 v 0 c -0.01791,1.511252 -0.109347,3.022506 -0.119861,4.534566 v 0 c -0.02181,3.081631 -0.03967,6.164878 0.0026,9.246504 v 0 c 0.01217,0.881969 -0.365263,1.324975 -1.094971,1.725062 v 0 c -2.47826,1.358185 -4.927364,2.769012 -7.375655,4.181457 v 0 c -1.82954,1.054477 -3.643693,2.135677 -5.457845,3.216878 v 0 c -0.200028,0.119058 -0.383073,0.17574 -0.566114,0.17574 v 0 c -0.207329,0 -0.415472,-0.07289 -0.64872,-0.20896"
     style="fill:url(#linearGradient2);stroke:none;stroke-width:0.809887" />
</svg>
